<mxfile host="Electron" modified="2024-02-06T11:03:28.529Z" agent="Mozilla/5.0 (Windows NT 10.0; Win64; x64) AppleWebKit/537.36 (KHTML, like Gecko) draw.io/21.6.5 Chrome/114.0.5735.243 Electron/25.3.1 Safari/537.36" etag="14bDI4KGToFroWJGcRl6" version="21.6.5" type="device">
  <diagram id="ZzrY9_B9jC9xOs_7Z7fI" name="Page-1">
    <mxGraphModel dx="5423" dy="2622" grid="1" gridSize="10" guides="1" tooltips="1" connect="1" arrows="1" fold="1" page="1" pageScale="1" pageWidth="850" pageHeight="1100" math="0" shadow="0">
      <root>
        <mxCell id="0" />
        <mxCell id="1" parent="0" />
        <mxCell id="JRHhB4XAqpqAtUa693Or-7" value="" style="rounded=0;whiteSpace=wrap;html=1;fillColor=#008a00;strokeColor=#005700;fontColor=#ffffff;" vertex="1" parent="1">
          <mxGeometry x="-450" y="330" width="350" height="540" as="geometry" />
        </mxCell>
        <mxCell id="JRHhB4XAqpqAtUa693Or-2" value="" style="ellipse;shape=cloud;whiteSpace=wrap;html=1;fillColor=#6a00ff;strokeColor=#3700CC;fontColor=#ffffff;" vertex="1" parent="1">
          <mxGeometry x="-130" width="2280" height="1090" as="geometry" />
        </mxCell>
        <mxCell id="JRHhB4XAqpqAtUa693Or-4" value="&lt;font style=&quot;font-size: 30px;&quot;&gt;&lt;b&gt;AWS&lt;/b&gt;&lt;/font&gt;" style="ellipse;shape=cloud;whiteSpace=wrap;html=1;fillColor=#e3c800;fontColor=#000000;strokeColor=#B09500;" vertex="1" parent="1">
          <mxGeometry x="830" y="280" width="490" height="310" as="geometry" />
        </mxCell>
        <mxCell id="JRHhB4XAqpqAtUa693Or-5" value="&lt;font style=&quot;font-size: 35px;&quot;&gt;&lt;b&gt;GCP&lt;/b&gt;&lt;/font&gt;" style="ellipse;shape=cloud;whiteSpace=wrap;html=1;fillColor=#e51400;fontColor=#ffffff;strokeColor=#B20000;" vertex="1" parent="1">
          <mxGeometry x="1390" y="280" width="490" height="310" as="geometry" />
        </mxCell>
        <mxCell id="JRHhB4XAqpqAtUa693Or-10" value="" style="ellipse;whiteSpace=wrap;html=1;fillColor=#d0cee2;strokeWidth=5;opacity=50;strokeColor=#56517e;" vertex="1" parent="1">
          <mxGeometry x="-500" y="40" width="1260" height="790" as="geometry" />
        </mxCell>
        <mxCell id="JRHhB4XAqpqAtUa693Or-3" value="&lt;font style=&quot;font-size: 30px;&quot;&gt;&lt;b&gt;Azure&lt;/b&gt;&lt;/font&gt;" style="ellipse;shape=cloud;whiteSpace=wrap;html=1;fontSize=22;fillColor=#1ba1e2;strokeColor=#006EAF;fontColor=#ffffff;" vertex="1" parent="1">
          <mxGeometry x="270" y="280" width="490" height="310" as="geometry" />
        </mxCell>
        <mxCell id="JRHhB4XAqpqAtUa693Or-9" value="OnPremise" style="rounded=0;whiteSpace=wrap;html=1;fillColor=#0050ef;fontColor=#ffffff;strokeColor=#001DBC;fontSize=20;fontStyle=1" vertex="1" parent="1">
          <mxGeometry x="-220" y="820" width="120" height="50" as="geometry" />
        </mxCell>
        <mxCell id="JRHhB4XAqpqAtUa693Or-11" value="" style="ellipse;whiteSpace=wrap;html=1;fillColor=#fad9d5;strokeWidth=5;strokeColor=#ae4132;opacity=50;" vertex="1" parent="1">
          <mxGeometry x="240" y="110" width="1680" height="790" as="geometry" />
        </mxCell>
        <mxCell id="JRHhB4XAqpqAtUa693Or-13" value="Cloud Computing" style="rounded=0;whiteSpace=wrap;html=1;fillColor=#0050ef;fontColor=#ffffff;strokeColor=#001DBC;fontSize=20;fontStyle=1" vertex="1" parent="1">
          <mxGeometry x="1050" y="980" width="180" height="50" as="geometry" />
        </mxCell>
        <mxCell id="JRHhB4XAqpqAtUa693Or-15" value="Cloud Ready" style="rounded=0;whiteSpace=wrap;html=1;fillColor=#0050ef;fontColor=#ffffff;strokeColor=#001DBC;fontSize=20;fontStyle=1" vertex="1" parent="1">
          <mxGeometry x="30" y="770" width="180" height="50" as="geometry" />
        </mxCell>
        <mxCell id="JRHhB4XAqpqAtUa693Or-19" value="" style="ellipse;whiteSpace=wrap;html=1;fillColor=#d0cee2;strokeWidth=5;strokeColor=#56517e;opacity=50;" vertex="1" parent="1">
          <mxGeometry x="630" y="300" width="1000" height="340" as="geometry" />
        </mxCell>
        <mxCell id="JRHhB4XAqpqAtUa693Or-16" value="Cloud Agnostic" style="rounded=0;whiteSpace=wrap;html=1;fillColor=#0050ef;fontColor=#ffffff;strokeColor=#001DBC;fontSize=20;fontStyle=1" vertex="1" parent="1">
          <mxGeometry x="1040" y="575" width="180" height="50" as="geometry" />
        </mxCell>
        <mxCell id="JRHhB4XAqpqAtUa693Or-18" value="Cloud Native" style="rounded=0;whiteSpace=wrap;html=1;fillColor=#0050ef;fontColor=#ffffff;strokeColor=#001DBC;fontSize=20;fontStyle=1" vertex="1" parent="1">
          <mxGeometry x="1000" y="840" width="180" height="50" as="geometry" />
        </mxCell>
      </root>
    </mxGraphModel>
  </diagram>
</mxfile>
